<svg width="1024" height="1024" viewBox="0 0 1024 1024" fill="none" xmlns="http://www.w3.org/2000/svg">
<path d="M512 0C229.248 0 0 229.248 0 512C0 794.752 229.248 1024 512 1024C794.752 1024 1024 794.752 1024 512C1024 229.248 794.752 0 512 0Z" fill="url(#paint0_linear_7400_9603)"/>
<path d="M664.414 589.056C656.563 570.795 644.958 554.24 629.598 539.221C614.238 524.373 597.513 510.379 579.081 497.237C560.649 484.096 543.582 471.467 527.539 459.179C511.497 446.891 499.038 434.603 489.993 422.144C480.947 409.685 478.217 396.715 481.63 382.891C485.897 365.995 496.137 354.731 512.521 349.099C528.905 343.467 548.19 343.467 570.547 349.099C583.518 352.341 598.366 357.291 608.435 363.435C652.467 390.4 648.883 436.651 648.883 436.651L650.59 437.163L695.817 448.427L716.809 364.288C716.809 364.288 680.457 340.395 652.467 326.571C636.425 318.549 616.457 310.528 597.513 304.213L619.187 217.173L565.598 203.861L544.094 290.219C520.03 285.952 497.331 284.928 475.998 287.317C448.179 290.219 424.798 298.581 405.683 312.405C386.739 326.059 374.11 345.173 368.137 369.579C362.334 392.789 363.187 413.44 370.697 431.872C378.206 450.304 389.811 467.029 405.342 482.389C420.873 497.579 437.769 511.573 456.201 524.544C474.633 537.344 491.699 550.144 507.742 562.603C523.614 575.061 536.073 587.691 544.947 600.661C553.822 613.461 556.382 627.456 552.627 642.645C548.019 661.419 536.585 673.365 518.494 678.827C500.403 684.288 479.923 684.117 457.225 678.485C449.203 676.437 439.646 673.024 430.089 668.757C402.099 656.64 381.961 632.405 375.817 604.245C374.793 599.637 374.11 596.565 374.11 596.565L327.177 584.789L306.867 666.368C320.691 675.925 334.515 686.165 363.187 700.672C387.422 712.96 407.219 721.493 434.867 729.173L413.875 813.483L467.465 826.795L488.969 740.267C509.107 742.827 528.734 743.339 547.507 741.461C577.886 738.389 603.827 729.344 625.161 714.325C646.494 699.307 660.489 678.315 667.315 651.179C673.118 627.968 672.094 607.317 664.243 589.056H664.414Z" fill="white"/>
<defs>
<linearGradient id="paint0_linear_7400_9603" x1="512" y1="0" x2="512" y2="1024" gradientUnits="userSpaceOnUse">
<stop stop-color="#F7911A"/>
<stop offset="1" stop-color="#F57F00"/>
</linearGradient>
</defs>
</svg>
