<svg width="200" height="50" viewBox="0 0 200 50" fill="none" xmlns="http://www.w3.org/2000/svg">
<path d="M84.752 44.2587C82.1017 44.2587 79.6455 43.7817 77.3839 42.8275C75.1577 41.8381 73.2318 40.4774 71.6058 38.7458C70.0156 36.979 68.7614 34.9115 67.8423 32.5439C66.9591 30.1409 66.5169 27.508 66.5169 24.6457C66.5169 21.7834 66.9415 19.2565 67.7893 16.8533C68.6372 14.415 69.8386 12.3122 71.394 10.5453C72.9842 8.74312 74.8924 7.34705 77.1186 6.3576C79.3802 5.33281 81.9071 4.82042 84.699 4.82042C87.0313 4.82042 89.1164 5.15613 90.954 5.82754C92.7915 6.46361 94.364 7.36472 95.6718 8.53085C97.0144 9.66165 98.0745 11.0047 98.8519 12.5596C99.6293 14.1144 100.125 15.7932 100.336 17.5954H92.7032C92.3498 15.6872 91.4836 14.1674 90.1051 13.0366C88.7272 11.8705 86.925 11.2874 84.6985 11.2874C82.9314 11.2874 81.3942 11.6408 80.0865 12.3475C78.8146 13.0189 77.7542 13.9554 76.9064 15.1569C76.0578 16.3583 75.4222 17.7721 74.9977 19.3976C74.5736 21.0234 74.3621 22.7726 74.3621 24.6455C74.3621 26.5183 74.5915 28.3738 75.0512 29.9993C75.5456 31.6251 76.235 33.0386 77.1182 34.2401C78.0372 35.4062 79.1329 36.325 80.4048 36.9964C81.7125 37.6325 83.1616 37.9505 84.7515 37.9505C87.0131 37.9505 88.8683 37.3498 90.3174 36.1483C91.8016 34.9115 92.6674 33.2859 92.9147 31.2715H100.442C100.336 32.9677 99.9297 34.5934 99.2227 36.1483C98.5159 37.6678 97.5267 39.0285 96.2544 40.23C94.9471 41.4668 93.3564 42.4565 91.4836 43.1986C89.646 43.9053 87.4023 44.2587 84.752 44.2587ZM103.019 16.27H110.227V43.4634H103.019V16.27ZM103.019 5.56226H110.227V12.0293H103.019V5.56226ZM112.487 16.27H116.251V7.78852H123.301V16.27H127.966V21.0408H123.301V35.4592C123.301 36.484 123.549 37.1907 124.043 37.5794C124.538 37.9682 125.192 38.1625 126.005 38.1625H127.383C127.63 38.1625 127.878 38.1448 128.125 38.1095V43.4104C127.772 43.4457 127.383 43.4634 126.959 43.4634C126.57 43.4987 126.093 43.5164 125.527 43.5164H123.619C122.736 43.5164 121.852 43.428 120.969 43.2513C120.121 43.0393 119.343 42.6859 118.636 42.1912C117.93 41.6965 117.346 41.0251 116.887 40.177C116.463 39.3289 116.251 38.2688 116.251 36.9964V21.0408H112.487L112.487 16.27ZM137.827 20.6167H137.986C138.799 19.0619 139.718 17.8955 140.743 17.1181C141.768 16.3407 143.075 15.952 144.665 15.952C145.407 15.952 145.973 16.0226 146.362 16.164V22.472H146.203C143.835 22.2246 141.891 22.737 140.372 24.0091C138.852 25.2813 138.092 27.3488 138.092 30.2111V43.4634H130.883V16.27H137.827V20.6167ZM160.671 44.2587C158.409 44.2587 156.394 43.8877 154.627 43.1456C152.896 42.4035 151.43 41.3964 150.228 40.124C149.026 38.8165 148.108 37.2791 147.472 35.5122C146.871 33.7453 146.571 31.8545 146.571 29.8403C146.571 27.8261 146.888 25.9529 147.525 24.2214C148.196 22.4545 149.115 20.9348 150.281 19.6626C151.483 18.3905 152.896 17.3834 154.522 16.641C156.183 15.8989 158.003 15.5279 159.982 15.5279C162.173 15.5279 164.099 15.9343 165.76 16.747C167.42 17.5245 168.817 18.6376 169.947 20.0867C171.078 21.5355 171.926 23.2673 172.492 25.2815C173.093 27.2604 173.393 29.4693 173.393 31.9075H153.674C153.957 34.028 154.663 35.6889 155.794 36.8904C156.96 38.0918 158.568 38.6926 160.618 38.6926C162.032 38.6926 163.163 38.3922 164.01 37.7915C164.858 37.1907 165.477 36.378 165.866 35.3532H172.969C172.722 36.5547 172.262 37.7034 171.59 38.7988C170.955 39.859 170.106 40.7956 169.046 41.6084C168.021 42.4212 166.802 43.0572 165.389 43.5166C163.975 44.0113 162.403 44.2587 160.671 44.2587ZM160.087 21.0938C158.179 21.0938 156.73 21.6239 155.741 22.684C154.752 23.7088 154.098 25.1223 153.779 26.9247H165.866C165.76 25.1932 165.177 23.7971 164.116 22.737C163.091 21.6415 161.749 21.0938 160.087 21.0938ZM193.057 43.4636C192.844 43.1809 192.667 42.7569 192.526 42.1915C192.385 41.6261 192.279 41.043 192.208 40.4423H192.102C191.749 40.9723 191.343 41.4671 190.883 41.9264C190.459 42.3505 189.929 42.7215 189.293 43.0396C188.692 43.3576 187.968 43.605 187.119 43.7817C186.271 43.9937 185.264 44.0997 184.098 44.0997C181.306 44.0997 179.026 43.3929 177.26 41.9794C175.493 40.5659 174.609 38.4985 174.609 35.7775C174.609 34.2933 174.892 33.0388 175.458 32.0138C176.023 30.989 176.8 30.1409 177.79 29.4693C178.78 28.7978 179.928 28.2855 181.235 27.9321C182.579 27.5434 184.01 27.243 185.529 27.031C187.791 26.7129 189.452 26.3772 190.513 26.0239C191.572 25.6705 192.103 24.9814 192.103 23.9566C192.103 22.9318 191.714 22.1897 190.937 21.6243C190.194 21.0236 189.064 20.7232 187.544 20.7232C185.848 20.7232 184.575 21.0413 183.727 21.6774C182.879 22.2781 182.402 23.2322 182.296 24.5399H175.882C175.917 23.3385 176.182 22.2077 176.677 21.1473C177.172 20.0518 177.896 19.0977 178.851 18.2847C179.805 17.472 181.006 16.8182 182.455 16.3235C183.904 15.8288 185.618 15.5814 187.597 15.5814C191.661 15.5814 194.577 16.4648 196.343 18.232C198.146 19.9635 199.047 22.4197 199.047 25.6001V39.4354C199.047 41.485 199.365 42.7394 200.001 43.1991V43.4641L193.057 43.4636ZM185.847 39.0639C186.872 39.0639 187.773 38.9225 188.55 38.6398C189.363 38.3218 190.034 37.9331 190.565 37.4737C191.13 36.979 191.554 36.4312 191.837 35.8305C192.12 35.1944 192.261 34.5407 192.261 33.869V29.7873C191.625 30.176 190.848 30.494 189.929 30.7414C189.046 30.9534 188.144 31.1655 187.225 31.3775C185.317 31.8015 183.903 32.2963 182.984 32.8617C182.066 33.4271 181.606 34.3458 181.606 35.6182C181.606 36.8906 181.995 37.7915 182.773 38.3215C183.55 38.8163 184.574 39.0639 185.847 39.0639Z" fill="white" fill-opacity="0.3"/>
<path d="M27.6511 18.3031C26.2533 18.3031 25.0018 17.5804 24.3029 16.3701L14.8513 0H40.4509L30.9993 16.3701C30.3004 17.5804 29.0489 18.3031 27.6511 18.3031Z" fill="white" fill-opacity="0.3"/>
<path d="M36.4009 23.3545C35.0031 23.3545 33.7513 22.6318 33.0524 21.4213C32.3535 20.211 32.3535 18.7656 33.0524 17.555L42.5037 1.18544L55.3034 23.3545H36.4009Z" fill="white" fill-opacity="0.3"/>
<path d="M14.8513 49.0795L24.3029 32.7096C25.0018 31.4993 26.2533 30.7766 27.6511 30.7766C29.0489 30.7766 30.3004 31.4993 30.9993 32.7096L40.4509 49.0795H14.8513Z" fill="white" fill-opacity="0.3"/>
<path d="M33.0526 31.5246C32.3534 30.3143 32.3534 28.8689 33.0526 27.6584C33.7515 26.4481 35.0032 25.7254 36.401 25.7254H55.3039L42.5041 47.8942L33.0526 31.5246Z" fill="white" fill-opacity="0.3"/>
<path d="M0 23.3545L12.8 1.18544L22.251 17.555C22.9502 18.7653 22.9502 20.2107 22.251 21.4213C21.5521 22.6318 20.3004 23.3545 18.9026 23.3545H0Z" fill="white" fill-opacity="0.3"/>
<path d="M0 25.7248H18.9028C20.3006 25.7248 21.5524 26.4475 22.2513 27.6578C22.9502 28.8684 22.9502 30.3138 22.2513 31.5241L12.8002 47.8934L0 25.7248Z" fill="white" fill-opacity="0.3"/>
</svg>
