<svg width="1200" height="630" viewBox="0 0 1200 630" fill="none" xmlns="http://www.w3.org/2000/svg">
  <!-- Dark Background -->
  <rect width="1200" height="630" fill="#2A2A2A"/>
  
  <!-- JuiceSwap Logo perfectly centered -->
  <g transform="translate(600, 315)">
    <!-- Logo Circle (perfectly centered) -->
    <g transform="translate(-52.5, -52.5) scale(5)">
      <path d="M1.428 7.05251C0.5075 7.97301 0 9.19801 0 10.5C0 16.289 4.711 21 10.5 21C14.3115 21 17.6575 18.956 19.4985 15.9075C18.5185 16.52 17.3635 16.8735 16.128 16.8735C12.614 16.8735 9.7545 14.014 9.7545 10.5C9.7545 7.63001 7.749 5.62451 4.879 5.62451C3.577 5.62451 2.352 6.13201 1.4315 7.05251H1.428Z" fill="#FFCF24"/>
      <path d="M20.9997 10.5C20.9997 4.711 16.2887 0 10.4997 0C7.69622 0 5.05722 1.092 3.07622 3.0765C2.46022 3.6925 1.92822 4.3715 1.49072 5.0995C2.47072 4.4835 3.63272 4.1265 4.87522 4.1265C8.38922 4.1265 11.2487 6.986 11.2487 10.5C11.2487 13.37 13.2542 15.3755 16.1242 15.3755C18.8122 15.3755 20.9997 13.188 20.9997 10.5Z" fill="#F7911A"/>
    </g>
    
    <!-- "Juice Swap" Text (perfectly centered) -->
    <g transform="translate(-225, 80)">
      <text x="225" y="0" font-family="Arial, sans-serif" font-size="120" font-weight="bold" fill="#F7911A" text-anchor="middle">Juice Swap</text>
    </g>
  </g>
</svg>