<svg preserveAspectRatio="xMidYMid meet" width="100%" height="100%" overflow="visible" style="display: block;" viewBox="0 0 42 42" fill="none" xmlns="http://www.w3.org/2000/svg">
<defs>
<linearGradient id="waveGradient" x1="21" y1="0" x2="21" y2="42" gradientUnits="userSpaceOnUse">
<stop offset="0.322" stop-color="white"/>
<stop offset="1" stop-color="#FFEBD8"/>
</linearGradient>
</defs>
<g id="wbtc-citrea">
<!-- wBTC symbol (centered in viewBox, cream colored for orange wave background) -->
<circle cx="21" cy="21" r="21" fill="white" fill-opacity="0.15"/>
<path d="M34.25 8.8L33.1 9.96C38.8 16.2 38.8 25.78 33.1 32.02L34.25 33.17C40.6 26.3 40.6 15.68 34.25 8.77V8.8Z" fill="url(#waveGradient)"/>
<path d="M10 8.9C16.24 3.19 25.8 3.19 32.04 8.9L33.19 7.75C26.32 1.39 15.69 1.39 8.79 7.75L10 8.9Z" fill="url(#waveGradient)"/>
<path d="M8.9 32.02C3.2 25.79 3.2 16.22 8.9 10L7.75 8.84C1.39 15.71 1.39 26.34 7.75 33.24L8.9 32.02Z" fill="url(#waveGradient)"/>
<path d="M32.02 33.1C25.79 38.8 16.21 38.8 9.97 33.1L8.81 34.25C15.68 40.61 26.31 40.61 33.21 34.25L32.02 33.1Z" fill="url(#waveGradient)"/>
<path d="M28.28 17.14C28.05 14.73 25.97 13.93 23.35 13.68V10.37H21.32V13.63H19.7V10.37H17.69V13.72H13.57V15.89C13.57 15.89 15.07 15.86 15.04 15.89C15.6 15.82 16.11 16.22 16.19 16.77V25.91C16.17 26.1 16.09 26.27 15.94 26.4C15.79 26.53 15.61 26.6 15.42 26.58C15.44 26.6 13.94 26.58 13.94 26.58L13.57 29.01H17.65V32.4H19.68V29.06H21.3V32.39H23.34V29.03C26.77 28.83 29.16 27.97 29.46 24.77C29.71 22.19 28.49 21.03 26.55 20.57C27.73 19.99 28.46 18.92 28.28 17.14ZM25.44 24.39C25.44 26.91 21.12 26.62 19.74 26.62V22.13C21.12 22.13 25.44 21.74 25.44 24.39ZM24.51 18.06C24.51 20.37 20.89 20.08 19.75 20.08V15.98C20.9 15.98 24.51 15.62 24.51 18.06Z" fill="url(#waveGradient)"/>
<path d="M21 42C9.4 41.99 0 32.6 0 21C0 9.4 9.4 0 21.01 0C32.61 0 42.01 9.4 42.01 21C42.01 32.6 32.61 41.99 21.01 42H21ZM21 1.64C10.32 1.65 1.65 10.33 1.66 21.01C1.67 31.69 10.35 40.36 21.03 40.35C31.71 40.34 40.38 31.67 40.38 21C40.38 10.32 31.71 1.64 21.02 1.64C21.01 1.64 21 1.64 21 1.64Z" fill="url(#waveGradient)"/>
<!-- Citrea Hexagon Badge (BLACK) - exact paths from cBTC, transformed to fit -->
<g transform="translate(33, 36) scale(0.65) translate(-53.578, -64.7)">
<path d="M53.578 67.326C54.156 67.326 54.674 67.629 54.963 68.137L58.87 75H48.287L52.194 68.137C52.483 67.629 53 67.326 53.578 67.326Z" fill="#1C1C1C"/>
<path d="M49.961 65.208C50.539 65.208 51.057 65.511 51.345 66.019C51.634 66.526 51.634 67.132 51.345 67.64L47.438 74.503L42.146 65.208H49.961Z" fill="#1C1C1C"/>
<path d="M59.718 74.503L55.811 67.64C55.522 67.133 55.522 66.526 55.811 66.019C56.1 65.511 56.618 65.208 57.196 65.208H65.01L59.718 74.503Z" fill="#1C1C1C"/>
<path d="M51.345 61.783C51.635 62.29 51.635 62.897 51.345 63.404C51.057 63.912 50.539 64.215 49.961 64.215H42.146L47.438 54.92L51.345 61.783Z" fill="#1C1C1C"/>
<path d="M65.01 64.215H57.195C56.617 64.214 56.1 63.911 55.811 63.404C55.522 62.897 55.522 62.29 55.811 61.783L59.718 54.92L65.01 64.215Z" fill="#1C1C1C"/>
<path d="M54.963 61.286C54.674 61.794 54.156 62.097 53.578 62.097C53 62.097 52.483 61.794 52.194 61.286L48.287 54.423H58.87L54.963 61.286Z" fill="#1C1C1C"/>
</g>
</g>
</svg>
