<svg preserveAspectRatio="xMidYMid meet" width="100%" height="100%" overflow="visible" style="display: block;" viewBox="0 0 44.1961 47.0001" fill="none" xmlns="http://www.w3.org/2000/svg">
<g id="Group 427322500">
<path id="Union" d="M38.9004 0V8.24805H26.5381V13.6553H26.5361L26.5381 13.6572V13.6553C36.5664 14.1196 44.1016 16.1098 44.1025 18.4951C44.1025 20.8807 36.5597 22.8719 26.5361 23.334V40.6729H17.6025V23.3398C7.55641 22.8757 0.000837371 20.8856 0 18.498C0 16.1103 7.55586 14.1173 17.6025 13.6553V8.24805H5.24219V0H38.9004ZM17.6045 14.2783C8.72724 14.6756 2.10059 16.2208 2.10059 18.0732C2.10066 19.9257 8.72729 21.4733 17.6045 21.8643C18.1768 21.8914 19.8076 21.96 22.1045 21.96C24.9926 21.96 26.2875 21.8831 26.5381 21.8643L26.5293 21.8613C35.3898 21.4683 41.9999 19.9215 42 18.0732C42 16.2249 35.3878 14.6774 26.5293 14.2822V20.3252C26.2798 20.3483 24.8996 20.4629 22.1445 20.4629C19.8476 20.4629 18.1852 20.3651 17.6045 20.3232V14.2783Z" fill="url(#paint0_linear_0_4)"/>
<g id="Polygon" transform="translate(29, 32)">
<circle cx="7.5" cy="7.5" r="7.5" fill="#8247E5"/>
<path transform="translate(2.2, 2.8) scale(0.72)" d="M10.8805 3.86445C10.6179 3.71437 10.2802 3.71437 9.98003 3.86445L7.87897 5.10257L6.45326 5.89047L4.38971 7.1286C4.12708 7.27867 3.78941 7.27867 3.48926 7.1286L1.87595 6.1531C1.61331 6.00303 1.42572 5.70288 1.42572 5.36521V3.48926C1.42572 3.18911 1.57579 2.88896 1.87595 2.70136L3.48926 1.76339C3.75189 1.61331 4.08956 1.61331 4.38971 1.76339L6.00303 2.73888C6.26566 2.88896 6.45326 3.18911 6.45326 3.52678V4.7649L7.87897 3.93949V2.66384C7.87897 2.36369 7.7289 2.06354 7.42875 1.87595L4.42723 0.112557C4.1646 -0.0375189 3.82693 -0.0375189 3.52678 0.112557L0.450227 1.91346C0.150076 2.06354 0 2.36369 0 2.66384V6.19062C0 6.49077 0.150076 6.79092 0.450227 6.97852L3.48926 8.74191C3.75189 8.89198 4.08956 8.89198 4.38971 8.74191L6.45326 7.5413L7.87897 6.71589L9.94252 5.51528C10.2051 5.36521 10.5428 5.36521 10.843 5.51528L12.4563 6.45325C12.7189 6.60333 12.9065 6.90348 12.9065 7.24115V9.1171C12.9065 9.41725 12.7564 9.7174 12.4563 9.905L10.8805 10.843C10.6179 10.993 10.2802 10.993 9.98003 10.843L8.36672 9.905C8.10409 9.75492 7.91649 9.45477 7.91649 9.1171V7.91649L6.49077 8.74191V9.98003C6.49077 10.2802 6.64085 10.5803 6.941 10.7679L9.98003 12.5313C10.2427 12.6814 10.5803 12.6814 10.8805 12.5313L13.9195 10.7679C14.1822 10.6179 14.3697 10.3177 14.3697 9.98003V6.41574C14.3697 6.11558 14.2197 5.81543 13.9195 5.62784L10.8805 3.86445Z" fill="white"/>
</g>
</g>
<defs>
<linearGradient id="paint0_linear_0_4" x1="22.0513" y1="0" x2="22.0513" y2="40.6729" gradientUnits="userSpaceOnUse">
<stop stop-color="#71BEA9"/>
<stop offset="0.5" stop-color="#50AF95"/>
</linearGradient>
</defs>
</svg>
