<svg preserveAspectRatio="xMidYMid meet" width="100%" height="100%" overflow="visible" style="display: block;" viewBox="0 0 52.7305 62" fill="none" xmlns="http://www.w3.org/2000/svg">
<g id="Group 427322502">
<path id="Vector" d="M31.3323 10.9536L33.3701 3.31154L28.7849 2.03787L27.0018 9.42515C25.7281 9.17042 24.4545 8.91569 23.1808 8.66095L24.9639 1.01894L20.124 0L18.3408 7.64202C17.3219 7.38728 16.303 7.13255 15.284 6.87782L8.91568 5.34941L7.64201 10.4441C7.64201 10.4441 11.2083 11.2083 10.9536 11.2083C12.7367 11.7178 13.2462 12.9914 13.2462 14.0104L7.89675 34.8985C7.64202 35.408 7.13255 36.427 5.60415 35.9175L2.29261 35.1533L0 40.5027L6.11361 42.0311L9.42515 42.7953L7.38728 50.4373L11.9725 51.711L14.0104 44.069C15.284 44.3237 16.5577 44.8332 17.8314 45.0879L16.0482 52.7299L20.6334 54.0036L22.6713 46.3616C30.5681 47.89 36.6817 47.3805 39.229 39.9932C41.2669 34.1343 39.229 30.8228 34.8985 28.7849C37.9553 28.0207 40.248 25.9829 40.7574 21.9071C41.5216 16.0482 37.4459 12.9914 31.3323 10.9536ZM30.0586 36.6817C28.5302 42.5406 18.8503 39.229 15.7935 38.4648L18.3408 28.2755C21.3976 29.0397 31.587 30.5681 30.0586 36.6817ZM31.587 21.6524C30.3133 27.0018 22.1618 24.1997 19.6145 23.6903L21.9071 14.2651C24.4545 14.7746 32.8607 16.0482 31.587 21.6524Z" fill="url(#paint0_linear_0_4)"/>
<path id="Vector_2" d="M39.7509 49.9022L40.5842 49.0688C39.7475 47.6438 39.9395 45.7752 41.166 44.5487L43.8031 41.9104C45.0279 40.6835 46.8982 40.4926 48.3249 41.3309L49.4457 40.2101L50.7596 41.5228L49.6382 42.6442C50.4757 44.069 50.284 45.939 49.0578 47.1651L46.4195 49.8034C45.1928 51.029 43.3234 51.2213 41.8983 50.384L41.0656 51.2168C41.9026 52.6416 41.7117 54.5113 40.4861 55.738L37.8472 58.3758C36.6205 59.6025 34.7513 59.7939 33.3254 58.9564L32.2529 60.0289L30.9394 58.7153L32.0119 57.6428C31.1743 56.217 31.3652 54.3472 32.5914 53.1211L35.2291 50.4833C36.4561 49.2563 38.3247 49.0649 39.7509 49.9022ZM45.1049 48.4888L47.7438 45.851C48.2332 45.3622 48.3866 44.6696 48.2188 44.0469C47.4027 44.6881 46.2804 43.5647 46.9219 42.7495C46.2989 42.5814 45.6058 42.7348 45.1147 43.2243L42.4778 45.8623C41.9838 46.3569 41.8332 47.0592 42.0097 47.6872C42.7815 47.2213 43.7475 48.1873 43.2802 48.9583C43.9085 49.1345 44.6108 48.9834 45.1049 48.4888ZM33.4315 56.241C34.2474 55.5989 35.3696 56.7212 34.729 57.5373C35.3517 57.7045 36.0448 57.5511 36.5334 57.062L39.1706 54.4248C39.6652 53.9296 39.816 53.227 39.6389 52.599C38.866 53.0643 37.9017 52.0994 38.3687 51.3282C37.7407 51.1517 37.0378 51.3028 36.544 51.7983L33.9063 54.4349C33.4166 54.924 33.2634 55.618 33.4315 56.241Z" fill="var(--fill-0, #F7911A)"/>
</g>
<defs>
<linearGradient id="paint0_linear_0_4" x1="20.4247" y1="0" x2="20.4247" y2="54.0036" gradientUnits="userSpaceOnUse">
<stop offset="0.206731" stop-color="#FFA945"/>
<stop offset="0.533654" stop-color="#F7911A"/>
</linearGradient>
</defs>
</svg>
