<svg preserveAspectRatio="xMidYMid meet" width="100%" height="100%" overflow="visible" style="display: block;" viewBox="0 0 58 64" fill="none" xmlns="http://www.w3.org/2000/svg">
<defs>
<linearGradient id="waveJuiceGrad" x1="29" y1="0" x2="29" y2="64" gradientUnits="userSpaceOnUse">
<stop offset="0.322" stop-color="white"/>
<stop offset="1" stop-color="#FFEBD8"/>
</linearGradient>
</defs>
<!-- Juice/Citrea logo - orange with leaf/straw -->
<path d="M17.81 2.56C19.74 3.27 21.28 4.68 22.15 6.54L23.5 9.43C25.72 8.57 28.13 8.09 30.65 8.09C41.5 8.09 50.29 16.88 50.29 27.74C50.29 38.58 41.5 47.38 30.65 47.38C19.8 47.38 11.01 38.58 11.01 27.74C11.01 20.24 15.2 13.73 21.37 10.42L20.03 7.54C19.42 6.25 18.35 5.27 17.01 4.77L8.25 1.59L9.06 -0.62L17.81 2.56ZM30.65 10.1C28.43 10.1 26.31 10.51 24.36 11.27L31.42 26.42C36.52 24.39 41.63 22.63 46.73 26.7C46.75 27.04 46.76 27.39 46.76 27.73C46.76 36.63 39.55 43.84 30.65 43.84C21.75 43.84 14.54 36.63 14.54 27.73C14.54 27.4 14.55 27.08 14.57 26.75C19.46 30.66 24.35 29.21 29.24 27.29L22.22 12.25C16.74 15.24 13.02 21.06 13.02 27.74C13.02 37.46 20.93 45.37 30.65 45.37C40.37 45.37 48.28 37.46 48.28 27.74C48.28 18.01 40.37 10.1 30.65 10.1ZM41.27 1.06C43.98 0.07 46.85 0.4 49.18 1.7C48.24 4.2 46.25 6.29 43.54 7.27C40.83 8.26 37.96 7.94 35.63 6.63C36.57 4.13 38.56 2.04 41.27 1.06Z" fill="url(#waveJuiceGrad)"/>
</svg>
