<svg preserveAspectRatio="xMidYMid meet" width="100%" height="100%" overflow="visible" style="display: block;" viewBox="0 0 35.2675 40" fill="none" xmlns="http://www.w3.org/2000/svg">
<g id="Group 427322501">
<path id="Vector" d="M29.4008 30.7113C29.385 30.748 29.38 30.7888 29.39 30.828C29.4091 30.9063 29.4683 31.0246 29.6458 31.0246H35.1156C35.2531 31.0246 35.3197 31.1938 35.2189 31.288L35.2172 31.2896L27.4609 39.9359C27.3442 40.0659 27.1276 39.9851 27.1251 39.8101C27.1251 39.7809 27.1309 39.7518 27.1434 39.7259L29.9108 33.8053C30.0199 33.5554 29.8366 33.2754 29.5641 33.2754H24.5752C24.3002 33.2754 24.1552 32.9496 24.3393 32.7454L30.9999 25.444C31.0666 25.3715 31.1607 25.3299 31.2591 25.3299C31.3766 25.3299 31.459 25.4465 31.4174 25.5574C31.1141 26.3682 30.0674 29.153 29.4008 30.7113V30.7113Z" fill="url(#paint0_linear_0_4)"/>
<path id="Vector_2" d="M20.7559 7.25612L22.1058 2.19371L19.0684 1.34998L17.8872 6.24363C17.0434 6.07489 16.1997 5.90614 15.356 5.73739L16.5372 0.674988L13.331 0L12.1498 5.06241C11.4748 4.89366 10.7998 4.72491 10.1248 4.55617L5.90614 3.54368L5.06241 6.91862C5.06241 6.91862 7.42486 7.42486 7.25612 7.42486C8.43734 7.76236 8.77484 8.60609 8.77484 9.28108L5.23115 23.1183C5.06241 23.4558 4.72491 24.1308 3.71243 23.7933L1.51872 23.2871L0 26.8308L4.04993 27.8432L6.24364 28.3495L4.89366 33.4119L7.9311 34.2556L9.28108 29.1932C10.1248 29.362 10.9685 29.6995 11.8123 29.8682L10.6311 34.9306L13.6685 35.7743L15.0185 30.7119C20.2496 31.7244 24.2996 31.3869 25.987 26.4933C27.337 22.6121 25.987 20.4184 23.1183 19.0684C25.1433 18.5622 26.662 17.2122 26.9995 14.5122C27.5057 10.6311 24.8058 8.60609 20.7559 7.25612ZM19.9121 24.2996C18.8997 28.1807 12.4873 25.987 10.4623 25.4808L12.1498 18.7309C14.1747 19.2371 20.9246 20.2496 19.9121 24.2996ZM20.9246 14.3435C20.0809 17.8872 14.681 16.031 12.9935 15.6935L14.5122 9.44983C16.1997 9.78732 21.7683 10.6311 20.9246 14.3435Z" fill="url(#paint1_linear_0_4)"/>
</g>
<defs>
<linearGradient id="paint0_linear_0_4" x1="29.7623" y1="25.3299" x2="29.7623" y2="40" gradientUnits="userSpaceOnUse">
<stop offset="0.125" stop-color="#FEA945"/>
<stop offset="1" stop-color="#F7911A"/>
</linearGradient>
<linearGradient id="paint1_linear_0_4" x1="13.5302" y1="0" x2="13.5302" y2="35.7743" gradientUnits="userSpaceOnUse">
<stop offset="0.206731" stop-color="#FFA945"/>
<stop offset="0.533654" stop-color="#F7911A"/>
</linearGradient>
</defs>
</svg>
