<svg preserveAspectRatio="xMidYMid meet" width="100%" height="100%" overflow="visible" style="display: block;" viewBox="0 0 52.7305 62" fill="none" xmlns="http://www.w3.org/2000/svg">
<defs>
<linearGradient id="orangeGrad" x1="22.67" y1="0" x2="22.67" y2="45.35" gradientUnits="userSpaceOnUse">
<stop offset="0.207" stop-color="#FFA945"/>
<stop offset="0.534" stop-color="#F7911A"/>
</linearGradient>
</defs>
<g id="wbtc-citrea">
<!-- wBTC symbol in ORANGE -->
<circle cx="22.67" cy="22.67" r="22.67" fill="#F7911A" fill-opacity="0.1"/>
<path d="M36.98 9.52L35.73 10.77C41.89 17.5 41.89 27.82 35.73 34.56L36.98 35.8C43.83 28.37 43.83 16.92 36.98 9.49V9.52Z" fill="url(#orangeGrad)"/>
<path d="M10.79 9.62C17.53 3.46 27.85 3.46 34.58 9.62L35.83 8.38C28.4 1.52 16.95 1.52 9.52 8.38L10.79 9.62Z" fill="url(#orangeGrad)"/>
<path d="M9.62 34.56C3.47 27.83 3.47 17.52 9.62 10.79L8.38 9.54C1.52 16.97 1.52 28.42 8.38 35.85L9.62 34.56Z" fill="url(#orangeGrad)"/>
<path d="M34.56 35.72C27.83 41.87 17.51 41.87 10.77 35.72L9.53 36.96C16.96 43.82 28.41 43.82 35.84 36.96L34.56 35.72Z" fill="url(#orangeGrad)"/>
<path d="M30.53 18.52C30.28 15.92 28.04 15.05 25.21 14.78V11.21H23.02V14.72H21.27V11.21H19.09V14.81H14.65V17.15C14.65 17.15 16.27 17.12 16.24 17.15C16.85 17.08 17.4 17.51 17.49 18.11V27.98C17.47 28.18 17.38 28.37 17.22 28.51C17.06 28.65 16.86 28.72 16.66 28.7C16.68 28.72 15.06 28.7 15.06 28.7L14.65 31.32H19.05V34.98H21.24V31.38H22.99V34.97H25.19V31.35C28.89 31.13 31.47 30.21 31.79 26.75C32.06 23.96 30.74 22.71 28.65 22.21C29.92 21.59 30.71 20.43 30.53 18.52ZM27.46 26.32C27.46 29.04 22.8 28.73 21.31 28.73V23.9C22.8 23.9 27.46 23.48 27.46 26.32ZM26.45 19.51C26.45 22 22.55 21.69 21.32 21.69V17.31C22.56 17.31 26.45 16.92 26.45 19.51Z" fill="url(#orangeGrad)"/>
<path d="M22.67 45.35C10.15 45.34 0 35.2 0 22.67C0 10.15 10.15 0 22.68 0C35.2 0 45.35 10.15 45.35 22.67C45.35 35.19 35.2 45.34 22.68 45.35H22.67ZM22.67 1.77C11.13 1.78 1.78 11.14 1.79 22.68C1.8 34.22 11.16 43.57 22.7 43.56C34.23 43.55 43.58 34.2 43.58 22.67C43.58 11.13 34.23 1.77 22.69 1.77C22.68 1.77 22.67 1.77 22.67 1.77Z" fill="url(#orangeGrad)"/>
<!-- Citrea badge -->
<g transform="translate(33, 42)">
<circle cx="10" cy="10" r="10" fill="#F17D00"/>
<path d="M10 7.06C9.58 7.06 9.19 6.85 8.98 6.49L6.18 1.61H13.82L11.02 6.49C10.81 6.85 10.42 7.06 10 7.06Z" fill="white"/>
<path d="M12.6 8.56C12.18 8.56 11.79 8.35 11.58 7.99C11.37 7.63 11.37 7.19 11.58 6.83L14.38 1.95L18.2 8.56H12.6Z" fill="white"/>
<path d="M6.18 18.39L8.98 13.51C9.19 13.15 9.58 12.94 10 12.94C10.42 12.94 10.81 13.15 11.02 13.51L13.82 18.39H6.18Z" fill="white"/>
<path d="M11.58 13.15C11.37 12.79 11.37 12.35 11.58 11.99C11.79 11.63 12.18 11.42 12.6 11.42H18.2L14.38 18.03L11.58 13.15Z" fill="white"/>
<path d="M1.8 8.56L5.62 1.95L8.42 6.83C8.63 7.19 8.63 7.63 8.42 7.99C8.21 8.35 7.82 8.56 7.4 8.56H1.8Z" fill="white"/>
<path d="M1.8 11.42H7.4C7.82 11.42 8.21 11.63 8.42 11.99C8.63 12.35 8.63 12.79 8.42 13.15L5.62 18.03L1.8 11.42Z" fill="white"/>
</g>
</g>
</svg>
