<svg width="66" height="76" viewBox="0 0 66 76" fill="none" xmlns="http://www.w3.org/2000/svg">
  <defs>
    <linearGradient id="waveGradient" x1="33" y1="0" x2="33" y2="76" gradientUnits="userSpaceOnUse">
      <stop offset="0.322" stop-color="white"/>
      <stop offset="1" stop-color="#FFEBD8"/>
    </linearGradient>
  </defs>
  <!-- Bitcoin Symbol (cream) -->
  <path fill-rule="evenodd" clip-rule="evenodd" d="M34.782 1.398L32.347 11.885C34.086 12.234 35.825 12.584 37.564 12.933L40 2.796L46.259 4.544L43.477 15.031C51.823 17.827 57.388 22.022 56.345 30.062C55.649 35.655 52.519 38.451 48.345 39.5C53.746 42.054 56.534 46.067 54.855 52.871H46.688L39.929 64.576C37.387 64.559 34.611 64.195 31.652 63.619L28.87 74.106L22.609 72.358L25.044 61.871C23.305 61.522 21.566 60.823 19.827 60.473L17.045 70.96L10.785 69.212L13.567 58.725L9.046 57.676L0.7 55.579L3.83 48.238L8.351 49.287C10.437 49.986 11.133 48.588 11.481 47.889L18.784 19.225C18.784 17.827 18.088 16.079 15.654 15.38C16.002 15.38 11.133 14.331 11.133 14.331L12.872 7.34L21.566 9.438C22.957 9.787 24.349 10.137 25.74 10.487L28.174 0L34.782 1.398ZM22.262 52.783C26.435 53.831 39.651 58.376 41.738 50.336C43.824 41.947 29.914 39.849 25.74 38.8L22.262 52.783ZM27.479 32.509C30.957 33.208 42.085 37.053 43.824 29.712C45.563 22.022 34.086 20.274 30.609 19.575L27.479 32.509Z" fill="url(#waveGradient)"/>
  <!-- Citrea Hexagon (BLACK) -->
  <path d="M53.578 67.326C54.156 67.326 54.674 67.629 54.963 68.137L58.87 75H48.287L52.194 68.137C52.483 67.629 53 67.326 53.578 67.326Z" fill="#1C1C1C"/>
  <path d="M49.961 65.208C50.539 65.208 51.057 65.511 51.345 66.019C51.634 66.526 51.634 67.132 51.345 67.64L47.438 74.503L42.146 65.208H49.961Z" fill="#1C1C1C"/>
  <path d="M59.718 74.503L55.811 67.64C55.522 67.133 55.522 66.526 55.811 66.019C56.1 65.511 56.618 65.208 57.196 65.208H65.01L59.718 74.503Z" fill="#1C1C1C"/>
  <path d="M51.345 61.783C51.635 62.29 51.635 62.897 51.345 63.404C51.057 63.912 50.539 64.215 49.961 64.215H42.146L47.438 54.92L51.345 61.783Z" fill="#1C1C1C"/>
  <path d="M65.01 64.215H57.195C56.617 64.214 56.1 63.911 55.811 63.404C55.522 62.897 55.522 62.29 55.811 61.783L59.718 54.92L65.01 64.215Z" fill="#1C1C1C"/>
  <path d="M54.963 61.286C54.674 61.794 54.156 62.097 53.578 62.097C53 62.097 52.483 61.794 52.194 61.286L48.287 54.423H58.87L54.963 61.286Z" fill="#1C1C1C"/>
</svg>
