<svg width="48" height="72" viewBox="0 0 48 72" fill="none" xmlns="http://www.w3.org/2000/svg">
  <defs>
    <linearGradient id="waveUsdGradient" x1="24" y1="0" x2="24" y2="72" gradientUnits="userSpaceOnUse">
      <stop offset="0.322" stop-color="white"/>
      <stop offset="1" stop-color="#FFEBD8"/>
    </linearGradient>
  </defs>
  <!-- USD Dollar Symbol - slightly tilted like original -->
  <g transform="rotate(12, 24, 36)">
    <path d="M28 2V7.5C36 8.5 41.5 13 42 20H33.5C33 16 30 13.5 25.5 13V29L28 29.5C37.5 31.5 43.5 36 43.5 45.5C43.5 54.5 37 60.5 28 62V69H19.5V62C10.5 61 4.5 55.5 4 47H12.5C13 52 16.5 55 21.5 55.5V39L19.5 38.5C10.5 36.5 4.5 32 4.5 23C4.5 14.5 10.5 9 19.5 7.5V2H28ZM19.5 28V14C15 14.5 12.5 17 12.5 21C12.5 25 15 27 19.5 28ZM28 40V55C33 54.5 35.5 52 35.5 47.5C35.5 43 32.5 41 28 40Z" fill="url(#waveUsdGradient)"/>
  </g>
</svg>
