<svg preserveAspectRatio="xMidYMid meet" width="100%" height="100%" overflow="visible" style="display: block;" viewBox="0 0 38.2915 38.4666" fill="none" xmlns="http://www.w3.org/2000/svg">
<g id="Group 427322499">
<path id="Subtract" d="M29.1357 34.3154C27.808 35.1448 26.3543 35.8231 24.7891 36.3174C24.6838 36.4223 24.4736 36.4219 24.3682 36.4219C23.947 36.3168 23.7363 36.0012 23.7363 35.5801V34.1064C23.7364 33.58 23.947 33.2641 24.3682 33.0537C25.3708 32.6868 26.327 32.2217 27.2256 31.6709L29.1357 34.3154ZM13.6309 0C14.0517 0.10517 14.2617 0.420849 14.2617 0.841797V2.31543C14.2617 2.84178 14.0518 3.15771 13.6309 3.36816C9.31498 4.94717 5.84073 8.31608 4.26172 12.7373C1.20894 20.843 5.42007 30.0009 13.6309 32.9482C13.9465 33.1589 14.2615 33.5798 14.2617 33.8955V35.3701C14.2617 35.5803 14.2625 35.686 14.1572 35.791C14.052 36.212 13.6301 36.4223 13.209 36.2119C7.31429 34.3171 2.78836 29.7902 0.893555 23.8955C-2.26442 13.8953 3.20897 3.26367 13.209 0.105469C13.3143 0.000369822 13.5255 0 13.6309 0ZM19.7363 5.47363C20.2625 5.57903 20.5781 5.89531 20.5781 6.31641V8.84277C22.9991 9.05323 24.8942 10.8424 25.3154 13.1582V13.2637C25.3154 13.6846 24.9993 14.001 24.5781 14.001H22.8945C22.5788 14.001 22.2627 13.7903 22.1572 13.4746C21.631 11.8957 20.5782 11.2637 18.6836 11.2637C16.5784 11.2637 15.5255 12.2108 15.5254 13.6846C15.5254 15.1584 16.1568 16.0007 19.3145 16.4219C23.7356 16.9481 25.9462 18.2114 25.9463 21.8955C25.9463 24.7377 23.8415 26.948 20.6836 27.4746V30.001C20.5782 30.5272 20.262 30.8438 19.8408 30.8438H18.2617C17.7357 30.7383 17.4199 30.4218 17.4199 30.001V27.4746C13.9462 26.9481 12.2617 25.0533 11.8408 22.4219V22.3164C11.841 21.8955 12.1574 21.5801 12.5781 21.5801H14.3672C14.683 21.5801 14.9994 21.791 15.1045 22.2119C15.4204 23.7907 16.3677 24.9482 19.1045 24.9482C21.1044 24.9482 22.5781 23.7908 22.5781 22.1064C22.5781 20.4221 21.631 19.7899 18.6836 19.2637C14.2624 18.7372 12.1572 17.3693 12.1572 13.8955C12.1572 11.2638 14.1566 9.15854 17.3145 8.7373V6.31641C17.4198 5.7899 17.7361 5.47363 18.1572 5.47363H19.7363ZM23.8418 0.526367C23.9469 0.105214 24.3679 -0.104982 24.7891 0.105469C30.5784 2.00031 35.2106 6.52631 37.1055 12.5264C38.5008 16.9448 38.2096 21.4861 36.5889 25.4521L34.3223 21.7578C36.1016 14.1781 31.9334 6.18937 24.3682 3.47363C24.0524 3.26293 23.7363 2.84205 23.7363 2.4209V0.947266C23.7363 0.736606 23.7365 0.631708 23.8418 0.526367Z" fill="url(#paint0_linear_0_4)"/>
<g id="Group">
<path id="Vector" d="M33.6088 23.2527L33.5068 23.5994V33.6593L33.6088 33.7611L38.2886 31.0008L33.6088 23.2527Z" fill="var(--fill-0, #8498E7)"/>
<path id="Vector_2" d="M33.6105 23.2528L28.9307 31.0009L33.6105 33.7612V28.8785V23.2528Z" fill="var(--fill-0, #A4B1ED)"/>
<path id="Vector_3" d="M33.6088 34.6451L33.5513 34.7151V38.2987L33.6088 38.4666L38.2915 31.8862L33.6088 34.6451Z" fill="var(--fill-0, #8093E5)"/>
<path id="Vector_4" d="M33.6105 38.4666V34.6451L28.9307 31.8862L33.6105 38.4666Z" fill="var(--fill-0, #9FACE9)"/>
<path id="Vector_5" d="M33.6108 33.7612L38.2906 31.0009L33.6108 28.8785V33.7612Z" fill="var(--fill-0, #667CE1)"/>
<path id="Vector_6" d="M28.9307 31.0009L33.6105 33.7612V28.8785L28.9307 31.0009Z" fill="var(--fill-0, #8499E7)"/>
</g>
</g>
<defs>
<linearGradient id="paint0_linear_0_4" x1="18.0893" y1="-1.09619" x2="18.0893" y2="35.3259" gradientUnits="userSpaceOnUse">
<stop stop-color="#5192F2"/>
<stop offset="1" stop-color="#3884F3"/>
</linearGradient>
</defs>
</svg>
