<svg preserveAspectRatio="xMidYMid meet" width="100%" height="100%" overflow="visible" style="display: block;" viewBox="0 0 42 42" fill="none" xmlns="http://www.w3.org/2000/svg">
<g id="wbtc-eth">
<!-- wBTC symbol (centered in viewBox) -->
<circle cx="21" cy="21" r="21" fill="white"/>
<path d="M34.25 8.8L33.1 9.96C38.8 16.2 38.8 25.78 33.1 32.02L34.25 33.17C40.6 26.3 40.6 15.68 34.25 8.77V8.8Z" fill="#5A5564"/>
<path d="M10 8.9C16.24 3.19 25.8 3.19 32.04 8.9L33.19 7.75C26.32 1.39 15.69 1.39 8.79 7.75L10 8.9Z" fill="#5A5564"/>
<path d="M8.9 32.02C3.2 25.79 3.2 16.22 8.9 10L7.75 8.84C1.39 15.71 1.39 26.34 7.75 33.24L8.9 32.02Z" fill="#5A5564"/>
<path d="M32.02 33.1C25.79 38.8 16.21 38.8 9.97 33.1L8.81 34.25C15.68 40.61 26.31 40.61 33.21 34.25L32.02 33.1Z" fill="#5A5564"/>
<path d="M28.28 17.14C28.05 14.73 25.97 13.93 23.35 13.68V10.37H21.32V13.63H19.7V10.37H17.69V13.72H13.57V15.89C13.57 15.89 15.07 15.86 15.04 15.89C15.6 15.82 16.11 16.22 16.19 16.77V25.91C16.17 26.1 16.09 26.27 15.94 26.4C15.79 26.53 15.61 26.6 15.42 26.58C15.44 26.6 13.94 26.58 13.94 26.58L13.57 29.01H17.65V32.4H19.68V29.06H21.3V32.39H23.34V29.03C26.77 28.83 29.16 27.97 29.46 24.77C29.71 22.19 28.49 21.03 26.55 20.57C27.73 19.99 28.46 18.92 28.28 17.14ZM25.44 24.39C25.44 26.91 21.12 26.62 19.74 26.62V22.13C21.12 22.13 25.44 21.74 25.44 24.39ZM24.51 18.06C24.51 20.37 20.89 20.08 19.75 20.08V15.98C20.9 15.98 24.51 15.62 24.51 18.06Z" fill="#F09242"/>
<path d="M21 42C9.4 41.99 0 32.6 0 21C0 9.4 9.4 0 21.01 0C32.61 0 42.01 9.4 42.01 21C42.01 32.6 32.61 41.99 21.01 42H21ZM21 1.64C10.32 1.65 1.65 10.33 1.66 21.01C1.67 31.69 10.35 40.36 21.03 40.35C31.71 40.34 40.38 31.67 40.38 21C40.38 10.32 31.71 1.64 21.02 1.64C21.01 1.64 21 1.64 21 1.64Z" fill="#282138"/>
<!-- ETH diamond badge (overflows viewBox, positioned bottom-right) -->
<g id="eth-diamond">
<path d="M33.6088 23.2527L33.5068 23.5994V33.6593L33.6088 33.7611L38.2886 31.0008L33.6088 23.2527Z" fill="var(--fill-0, #8498E7)"/>
<path d="M33.6105 23.2528L28.9307 31.0009L33.6105 33.7612V28.8785V23.2528Z" fill="var(--fill-0, #A4B1ED)"/>
<path d="M33.6088 34.6451L33.5513 34.7151V38.2987L33.6088 38.4666L38.2915 31.8862L33.6088 34.6451Z" fill="var(--fill-0, #8093E5)"/>
<path d="M33.6105 38.4666V34.6451L28.9307 31.8862L33.6105 38.4666Z" fill="var(--fill-0, #9FACE9)"/>
<path d="M33.6108 33.7612L38.2906 31.0009L33.6108 28.8785V33.7612Z" fill="var(--fill-0, #667CE1)"/>
<path d="M28.9307 31.0009L33.6105 33.7612V28.8785L28.9307 31.0009Z" fill="var(--fill-0, #8499E7)"/>
</g>
</g>
</svg>
