<svg preserveAspectRatio="xMidYMid meet" width="100%" height="100%" overflow="visible" style="display: block;" viewBox="0 0 44 41" fill="none" xmlns="http://www.w3.org/2000/svg">
<g id="tether-only">
<path id="Union" d="M38.9004 0V8.24805H26.5381V13.6553H26.5361L26.5381 13.6572V13.6553C36.5664 14.1196 44.1016 16.1098 44.1025 18.4951C44.1025 20.8807 36.5597 22.8719 26.5361 23.334V40.6729H17.6025V23.3398C7.55641 22.8757 0.000837371 20.8856 0 18.498C0 16.1103 7.55586 14.1173 17.6025 13.6553V8.24805H5.24219V0H38.9004ZM17.6045 14.2783C8.72724 14.6756 2.10059 16.2208 2.10059 18.0732C2.10066 19.9257 8.72729 21.4733 17.6045 21.8643C18.1768 21.8914 19.8076 21.96 22.1045 21.96C24.9926 21.96 26.2875 21.8831 26.5381 21.8643L26.5293 21.8613C35.3898 21.4683 41.9999 19.9215 42 18.0732C42 16.2249 35.3878 14.6774 26.5293 14.2822V20.3252C26.2798 20.3483 24.8996 20.4629 22.1445 20.4629C19.8476 20.4629 18.1852 20.3651 17.6045 20.3232V14.2783Z" fill="url(#paint0_linear_tether)"/>
</g>
<defs>
<linearGradient id="paint0_linear_tether" x1="22.0513" y1="0" x2="22.0513" y2="40.6729" gradientUnits="userSpaceOnUse">
<stop stop-color="#71BEA9"/>
<stop offset="0.5" stop-color="#50AF95"/>
</linearGradient>
</defs>
</svg>
